# xmcd
#
# Track frame offsets:
#       150
#       9445
#       21797
#       32990
#       45267
#       57902
#       70742
#       84972
#       97292
#       111440
#       125720
#       136320
#
# Disc length: 1976 seconds
#
# Revision: 0
# Processed by: cddbd v1.4b42PL0 Copyright (c) Steve Scherf et al.
# Submitted via: WhereIsIt 3.11
#
DISCID=9f07b60c
DTITLE=Billy Walker - Greatest Hits
DYEAR=1900
DGENRE=
TTITLE0=I Taught Her Everything She Knows
TTITLE1=Ramona
TTITLE2=Thinking About You Babe
TTITLE3=Bear With Me A Little Longer
TTITLE4=From The Bottle To The Bottom
TTITLE5=Sundown Mary
TTITLE6=Anything Your Heart Desires
TTITLE7=In Del Rio
TTITLE8=Curtains On The Window
TTITLE9=Darling Days
TTITLE10=Smoky Places
TTITLE11=T For Texas
EXTD=
EXTT0=
EXTT1=
EXTT2=
EXTT3=
EXTT4=
EXTT5=
EXTT6=
EXTT7=
EXTT8=
EXTT9=
EXTT10=
EXTT11=
PLAYORDER=
